<svg width="162" height="63" viewBox="0 0 162 63" fill="none" xmlns="http://www.w3.org/2000/svg">
<path d="M153.63 0.890965L153.629 0.891224L140.432 4.14085C140.229 4.18561 140.048 4.29895 139.919 4.46177C139.79 4.62513 139.722 4.8282 139.725 5.03644C139.729 5.24469 139.804 5.44528 139.939 5.6041C140.073 5.76189 140.257 5.86877 140.46 5.90686C141.184 6.0779 142.717 6.45525 144.2 6.92656C144.943 7.16266 145.671 7.42145 146.277 7.68867C146.889 7.95835 147.358 8.22854 147.601 8.48096C147.844 8.73328 148.094 9.21219 148.339 9.83414C148.581 10.4504 148.809 11.1876 149.014 11.9393C149.424 13.4423 149.738 14.9912 149.879 15.7203L149.879 15.721C149.911 15.8799 149.984 16.0277 150.091 16.1492C150.198 16.2707 150.336 16.3617 150.489 16.413C150.643 16.4642 150.808 16.4739 150.966 16.4409C151.125 16.408 151.272 16.3337 151.393 16.2255L151.399 16.2198L151.405 16.2133C151.505 16.1007 151.579 15.9676 151.622 15.8235L151.622 15.8223L155.421 2.7629L155.421 2.76213C155.493 2.51022 155.498 2.24391 155.435 1.98967C155.372 1.73542 155.243 1.5021 155.062 1.31289C154.881 1.12368 154.653 0.98518 154.402 0.911162C154.151 0.837144 153.885 0.83018 153.63 0.890965Z" stroke="white" stroke-width="0.3"/>
<path d="M146.911 5.62918L146.88 5.77582C147.137 5.83131 147.646 6.02077 148.148 6.25137C148.396 6.36584 148.639 6.4886 148.844 6.60714C149.051 6.72741 149.208 6.83747 149.295 6.92498C149.382 7.01268 149.491 7.17138 149.61 7.37977C149.727 7.5852 149.848 7.82891 149.961 8.07845C150.188 8.58077 150.374 9.09027 150.428 9.348C150.443 9.42579 150.48 9.49799 150.533 9.55699C150.586 9.61622 150.654 9.65997 150.73 9.68356C150.806 9.70717 150.887 9.70974 150.964 9.69104C151.042 9.67234 151.113 9.63305 151.17 9.57732L151.17 9.5777L151.178 9.56808C151.225 9.51407 151.26 9.45086 151.28 9.38253L151.28 9.38254L151.281 9.37957L152.716 4.22587L152.716 4.2259L152.718 4.22008C152.742 4.11821 152.753 4.02288 152.74 3.93905C152.727 3.8502 152.687 3.76796 152.606 3.71445C152.531 3.66508 152.443 3.65429 152.363 3.65703C152.283 3.65981 152.192 3.67719 152.096 3.70239L146.861 4.92591L146.894 5.07202L146.86 4.92596L146.86 4.92593C146.788 4.94286 146.72 4.97769 146.664 5.02725L146.664 5.02699L146.657 5.03421C146.601 5.09064 146.562 5.16103 146.543 5.23801C146.524 5.31495 146.526 5.39564 146.548 5.47156C146.571 5.54746 146.614 5.61579 146.673 5.66937C146.731 5.72295 146.803 5.75978 146.881 5.77601L146.911 5.62918ZM146.911 5.62918C147.46 5.74736 148.996 6.41004 149.402 6.81947C149.807 7.22889 150.461 8.76951 150.575 9.31822L146.764 5.13956C146.727 5.17681 146.701 5.22328 146.688 5.27407C146.676 5.32487 146.677 5.37813 146.692 5.42823C146.707 5.47834 146.736 5.52344 146.774 5.5588C146.813 5.59416 146.86 5.61847 146.911 5.62918Z" stroke="white" stroke-width="0.3"/>
<path d="M1.2874 60.0974L1.11758 60.0748V60.2461V61.8627V62.0127H1.26758H12.5373H12.6873V61.8627V61.0523V60.9074L12.5426 60.9024C9.1017 60.7815 5.66785 60.5453 2.24101 60.1939L2.24102 60.1938L2.23556 60.1935C1.91865 60.1726 1.60124 60.1393 1.2874 60.0974Z" stroke="white" stroke-width="0.3"/>
<path d="M62.8261 40.897L62.8277 40.8986C64.0777 42.1499 65.5826 43.1174 67.2399 43.7352C69.0117 44.4424 71.3424 44.792 74.2246 44.792H83.3755H83.4046L83.4316 44.7811C88.9642 42.5484 94.4137 40.1256 99.7802 37.5128L100.092 37.3609L99.7678 37.2377C97.8122 36.4942 95.7299 36.141 93.6386 36.198H74.8367V36.1979L74.8312 36.1981C74.324 36.2167 73.8167 36.1642 73.3241 36.0421C73.0061 35.9623 72.7089 35.815 72.4526 35.6103L72.4517 35.6096C72.1261 35.3536 71.8645 35.0254 71.6876 34.6508C71.5107 34.2763 71.4234 33.8657 71.4326 33.4516L71.4328 33.4516L71.4326 33.4441C71.4218 33.0542 71.4909 32.6663 71.6357 32.3042C71.7804 31.9425 71.9976 31.6142 72.2739 31.3396C72.5371 31.0869 72.8511 30.8931 73.1951 30.7713C73.725 30.6107 74.2779 30.5391 74.8312 30.5591L74.8312 30.5592H74.8367H112.105V30.9326V31.186L112.327 31.0641L113.281 30.5407L113.281 30.5407C114.894 29.6539 116.497 28.7544 118.091 27.8423C121.587 25.8407 125.046 23.7757 128.466 21.6474C129.762 20.841 131.051 20.0301 132.335 19.2022L132.763 18.9262H132.253H74.2035C71.3239 18.9262 69.0026 19.2744 67.2475 19.9791C65.6093 20.6109 64.1242 21.5837 62.8904 22.8329L62.8904 22.8329L62.8893 22.834C61.7401 24.0221 60.8186 25.4108 60.1705 26.9313C59.5014 28.4895 59.1625 30.1695 59.1749 31.8652C59.1569 33.5672 59.4838 35.2553 60.1361 36.8276L60.1364 36.8282C60.7723 38.3399 61.6844 39.7197 62.8261 40.897L62.8261 40.897Z" stroke="white" stroke-width="0.3"/>
<path d="M104.069 40.107L104.069 40.107L104.067 40.1048L103.91 39.9486L103.836 39.8746L103.741 39.9185C100.189 41.561 96.6064 43.1246 92.9925 44.6096L92.4903 44.8159L93.0272 44.8966C93.1879 44.9208 93.3466 44.9571 93.5018 45.0051C93.9029 45.1378 94.2616 45.3747 94.5409 45.6917L94.5408 45.6918L94.5467 45.6978C94.8276 45.9827 95.0473 46.322 95.1923 46.6949C95.3373 47.0678 95.4046 47.4664 95.3899 47.8663L95.3895 47.8663L95.39 47.8778C95.4128 48.4437 95.2536 49.0019 94.9359 49.4707C94.6184 49.939 94.1594 50.2933 93.626 50.4817C92.9793 50.6931 92.3002 50.7876 91.6203 50.7609L91.6203 50.7608H91.6144H76.4699H76.4456L76.4225 50.7685L76.2833 50.8149C71.5209 52.3967 66.7083 53.835 61.8456 55.0749C59.2466 55.7331 56.6441 56.3616 54.0294 56.9309L54.0291 56.931C51.7432 57.4329 49.4492 57.8925 47.1471 58.293C45.2153 58.6277 43.2794 58.9356 41.3392 59.2167L41.3386 59.2168C40.839 59.2913 40.3425 59.3628 39.845 59.4344C39.3783 59.5016 38.9107 59.5689 38.4389 59.6389L38.1557 59.681L38.3515 59.8899C39.1822 60.776 40.1862 61.4819 41.3012 61.9637L41.3022 61.9641L41.412 62.0105L41.44 62.0224H41.4704H93.6383C95.8619 62.0867 98.0734 61.6724 100.123 60.8077L100.123 60.8077L100.126 60.8065C101.826 60.0481 103.345 58.9342 104.579 57.5399L104.581 57.5377C105.571 56.3747 106.359 55.0551 106.916 53.633C108.108 50.6048 108.063 47.2295 106.791 44.2338C106.142 42.7043 105.219 41.3059 104.069 40.107Z" stroke="white" stroke-width="0.3"/>
<path d="M42.4198 47.8713C43.0107 47.8713 43.3062 47.4914 43.3062 46.7316V19.2138V19.0638L42.4198 47.8713ZM42.4198 47.8713C42.2256 47.8735 42.0325 47.8406 41.85 47.7742L42.4198 47.8713ZM46.7216 56.1011C49.3455 55.5688 51.9479 54.9604 54.5413 54.2973L54.6542 54.2684V54.1519V54.1508V54.1497V54.1486V54.1475V54.1464V54.1453V54.1441V54.143V54.1419V54.1408V54.1397V54.1386V54.1375V54.1363V54.1352V54.1341V54.133V54.1319V54.1308V54.1297V54.1285V54.1274V54.1263V54.1252V54.1241V54.123V54.1218V54.1207V54.1196V54.1185V54.1174V54.1163V54.1152V54.114V54.1129V54.1118V54.1107V54.1096V54.1085V54.1073V54.1062V54.1051V54.104V54.1029V54.1018V54.1006V54.0995V54.0984V54.0973V54.0962V54.095V54.0939V54.0928V54.0917V54.0906V54.0895V54.0883V54.0872V54.0861V54.085V54.0839V54.0827V54.0816V54.0805V54.0794V54.0783V54.0771V54.076V54.0749V54.0738V54.0727V54.0716V54.0704V54.0693V54.0682V54.0671V54.066V54.0648V54.0637V54.0626V54.0615V54.0603V54.0592V54.0581V54.057V54.0559V54.0547V54.0536V54.0525V54.0514V54.0503V54.0491V54.048V54.0469V54.0458V54.0446V54.0435V54.0424V54.0413V54.0402V54.039V54.0379V54.0368V54.0357V54.0345V54.0334V54.0323V54.0312V54.03V54.0289V54.0278V54.0267V54.0256V54.0244V54.0233V54.0222V54.0211V54.0199V54.0188V54.0177V54.0166V54.0154V54.0143V54.0132V54.0121V54.0109V54.0098V54.0087V54.0076V54.0064V54.0053V54.0042V54.0031V54.0019V54.0008V53.9997V53.9986V53.9974V53.9963V53.9952V53.994V53.9929V53.9918V53.9907V53.9895V53.9884V53.9873V53.9862V53.985V53.9839V53.9828V53.9817V53.9805V53.9794V53.9783V53.9771V53.976V53.9749V53.9738V53.9726V53.9715V53.9704V53.9692V53.9681V53.967V53.9659V53.9647V53.9636V53.9625V53.9613V53.9602V53.9591V53.958V53.9568V53.9557V53.9546V53.9534V53.9523V53.9512V53.95V53.9489V53.9478V53.9466V53.9455V53.9444V53.9433V53.9421V53.941V53.9399V53.9387V53.9376V53.9365V53.9353V53.9342V53.9331V53.9319V53.9308V53.9297V53.9285V53.9274V53.9263V53.9251V53.924V53.9229V53.9218V53.9206V53.9195V53.9184V53.9172V53.9161V53.915V53.9138V53.9127V53.9116V53.9104V53.9093V53.9082V53.907V53.9059V53.9048V53.9036V53.9025V53.9013V53.9002V53.8991V53.8979V53.8968V53.8957V53.8945V53.8934V53.8923V53.8911V53.89V53.8889V53.8877V53.8866V53.8855V53.8843V53.8832V53.882V53.8809V53.8798V53.8786V53.8775V53.8764V53.8752V53.8741V53.873V53.8718V53.8707V53.8695V53.8684V53.8673V53.8661V53.865V53.8639V53.8627V53.8616V53.8604V53.8593V53.8582V53.857V53.8559V53.8548V53.8536V53.8525V53.8513V53.8502V53.8491V53.8479V53.8468V53.8456V53.8445V53.8434V53.8422V53.8411V53.8399V53.8388V53.8377V53.8365V53.8354V53.8342V53.8331V53.832V53.8308V53.8297V53.8285V53.8274V53.8263V53.8251V53.824V53.8228V53.8217V53.8206V53.8194V53.8183V53.8171V53.816V53.8148V53.8137V53.8126V53.8114V53.8103V53.8091V53.808V53.8069V53.8057V53.8046V53.8034V53.8023V53.8011V53.8V53.7989V53.7977V53.7966V53.7954V53.7943V53.7931V53.792V53.7908V53.7897V53.7886V53.7874V53.7863V53.7851V53.784V53.7828V53.7817V53.7805V53.7794V53.7783V53.7771V53.776V53.7748V53.7737V53.7725V53.7714V53.7702V53.7691V53.768V53.7668V53.7657V53.7645V53.7634V53.7622V53.7611V53.7599V53.7588V53.7576V53.7565V53.7553V53.7542V53.753V53.7519V53.7508V53.7496V53.7485V53.7473V53.7462V53.745V53.7439V53.7427V53.7416V53.7404V53.7393V53.7381V53.737V53.7358V53.7347V53.7335V53.7324V53.7312V53.7301V53.7289V53.7278V53.7266V53.7255V53.7243V53.7232V53.722V53.7209V53.7197V53.7186V53.7174V53.7163V53.7151V53.714V53.7128V53.7117V53.7105V53.7094V53.7082V53.7071V53.7059V53.7048V53.7036V53.7025V53.7013V53.7002V53.699V53.6979V53.6967V53.6956V53.6944V53.6933V53.6921V53.691V53.6898V53.6887V53.6875V53.6864V53.6852V53.6841V53.6829V53.6817V53.6806V53.6794V53.6783V53.6771V53.676V53.6748V53.6737V53.6725V53.6714V53.6702V53.6691V53.6679V53.6667V53.6656V53.6644V53.6633V53.6621V53.661V53.6598V53.6587V53.6575V53.6564V53.6552V53.654V53.6529V53.6517V53.6506V53.6494V53.6483V53.6471V53.646V53.6448V53.6436V53.6425V53.6413V53.6402V53.639V53.6379V53.6367V53.6355V53.6344V53.6332V53.6321V53.6309V53.6298V53.6286V53.6274V53.6263V53.6251V53.624V53.6228V53.6217V53.6205V53.6193V53.6182V53.617V53.6159V53.6147V53.6136V53.6124V53.6112V53.6101V53.6089V53.6078V53.6066V53.6054V53.6043V53.6031V53.602V53.6008V53.5996V53.5985V53.5973V53.5962V53.595V53.5938V53.5927V53.5915V53.5904V53.5892V53.588V53.5869V53.5857V53.5846V53.5834V53.5822V53.5811V53.5799V53.5787V53.5776V53.5764V53.5753V53.5741V53.5729V53.5718V53.5706V53.5695V19.0638V18.9138H54.5042H43.3062H43.1562V19.0638V46.7316C43.1562 47.0962 43.0846 47.342 42.9662 47.4943C42.8534 47.6393 42.6807 47.7213 42.4198 47.7213L42.4181 47.7213C42.2439 47.7233 42.0707 47.6941 41.9067 47.6352L46.7212 56.1012C46.7213 56.1012 46.7215 56.1012 46.7216 56.1011ZM46.7216 56.1011C44.9474 56.4672 43.169 56.8066 41.3863 57.1192M46.7216 56.1011C46.7216 56.1011 46.7216 56.1011 46.7216 56.1011L41.3863 57.1192M41.3863 57.1192C39.8289 57.4008 38.2686 57.6571 36.7056 57.8881L36.6241 57.9001L36.5702 57.8378L14.5119 32.331L14.5039 32.3218L14.5043 32.3215C14.3985 32.1771 14.263 32.0569 14.1069 31.9691C13.9525 31.8822 13.7813 31.829 13.6048 31.813C13.4856 31.812 13.3674 31.8351 13.2573 31.881C13.146 31.9274 13.0454 31.996 12.9616 32.0826L41.3863 57.1192ZM2.32751 59.2568C2.32761 59.2569 2.3277 59.2569 2.32779 59.2569L2.33836 59.1072L2.32732 59.2568C2.32738 59.2568 2.32745 59.2568 2.32751 59.2568Z" stroke="white" stroke-width="0.3"/>
<path d="M123.86 51.2626V61.8759V62.0259H123.71H112.25H112.1V61.8759V36.0103V35.9178L112.183 35.8763C118.539 32.6839 124.785 29.3016 130.919 25.7295L130.995 25.8591L130.919 25.7295C134.683 23.5385 138.393 21.2785 142.049 18.9497L142.086 18.9262H142.13L143.396 18.9262L143.396 18.9262V19.0762C146.435 19.0734 148.977 19.4842 151.023 20.3087L123.86 51.2626ZM123.86 51.2626H143.4C146.707 51.2626 149.494 50.7428 151.756 49.6959M123.86 51.2626L151.756 49.6959M161.151 35.0692C161.152 32.9202 160.716 30.7935 159.869 28.8185C159.047 26.8614 157.854 25.0823 156.355 23.5795L156.354 23.5784C154.845 22.0956 153.05 20.9356 151.078 20.1692L161.001 35.0691M161.151 35.0692L161.001 35.0691M161.151 35.0692C161.151 35.069 161.151 35.0688 161.151 35.0686L161.001 35.0691M161.151 35.0692C161.158 36.9604 160.821 38.8372 160.158 40.6085M161.001 35.0691C161.008 36.9425 160.674 38.8017 160.018 40.5562M160.158 40.6085C160.158 40.6084 160.158 40.6084 160.158 40.6083L160.018 40.5562M160.158 40.6085C159.509 42.361 158.57 43.9921 157.381 45.4339L157.381 45.4348C155.851 47.2608 153.928 48.7174 151.756 49.6959M160.158 40.6085C160.158 40.6086 160.158 40.6087 160.158 40.6088L160.018 40.5562M160.018 40.5562C159.374 42.293 158.444 43.9096 157.266 45.3385L151.756 49.6959M151.756 49.6959C151.757 49.6957 151.757 49.6956 151.757 49.6955L151.694 49.5594L151.756 49.6961C151.756 49.696 151.756 49.696 151.756 49.6959ZM123.864 40.4611V31.3252C123.864 31.0511 123.929 30.8733 124.034 30.7638C124.137 30.6557 124.302 30.5888 124.558 30.5888H143.679V30.5889L143.684 30.5887C144.689 30.5542 145.69 30.7229 146.628 31.0847C147.335 31.3744 147.956 31.8376 148.436 32.4313C149.13 33.3267 149.498 34.4319 149.48 35.5647L149.48 35.5669C149.479 36.6197 149.126 37.6419 148.478 38.4716L148.465 38.4884L148.457 38.5083L148.456 38.5111C147.99 39.1321 147.371 39.6219 146.659 39.9326C145.707 40.3217 144.683 40.5019 143.655 40.4612L143.655 40.4611H143.649H123.864Z" stroke="white" stroke-width="0.3"/>
</svg>
